<?xml version="1.0" encoding="iso-8859-1"?>
<!-- Uploaded to: SVG Repo, www.svgrepo.com, Generator: SVG Repo Mixer Tools -->
<svg fill="#000000" height="800px" width="800px" version="1.1" id="Layer_1" xmlns="http://www.w3.org/2000/svg" xmlns:xlink="http://www.w3.org/1999/xlink" 
	 viewBox="0 0 512 512" xml:space="preserve">
<g>
	<g>
		<g>
			<path d="M459.034,142.613c0.189-2.223,0.284-4.458,0.284-6.684c0-43.13-35.089-78.219-78.219-78.219
				c-6.689,0-13.301,0.848-19.731,2.525C337.415,22.924,295.789,0,251.235,0c-55.03,0-103.595,33.984-122.582,85.149
				c-32.561,1.66-62.934,15.206-86.042,38.499c-24.458,24.654-37.928,57.358-37.928,92.087c0,72.106,58.662,130.769,130.768,130.769
				h30.905l-56.336,66.336c-3.245,3.821-3.953,9.02-1.848,13.568c2.105,4.549,6.527,7.376,11.54,7.376h25.622l-12.039,64.533
				c-0.973,5.217,1.593,10.254,6.385,12.536c1.625,0.773,3.334,1.148,5.019,1.148c3.281,0,6.467-1.424,8.738-4.098l97.477-114.777
				c3.245-3.821,3.953-9.02,1.848-13.568c-2.105-4.549-6.527-7.376-11.54-7.376h-25.621l4.789-25.676h97.74l-32.554,38.332
				c-2.834,3.337-3.452,7.878-1.615,11.851c1.838,3.974,5.7,6.442,10.078,6.442h13.683l-7.361,39.456
				c-0.857,4.597,1.493,9.21,5.716,11.22c1.418,0.674,2.93,1.001,4.428,1.001c2.964,0,5.872-1.275,7.881-3.641l64.426-75.86
				c2.833-3.337,3.451-7.878,1.613-11.851c-1.839-3.973-5.701-6.441-10.078-6.441h-13.681l1.96-10.508h32.843
				c61.675,0,111.851-50.176,111.851-111.851C507.318,197.584,489.364,163.548,459.034,142.613z M234.263,388.113l-82.277,96.88
				l10.767-57.715c0.434-2.328-0.19-4.73-1.704-6.552c-1.514-1.822-3.759-2.876-6.128-2.876h-28.256l60.593-71.347h16.922
				l-6.003,32.182c-0.434,2.328,0.19,4.73,1.704,6.552s3.759,2.876,6.128,2.876H234.263z M363.912,372.944L319.89,424.78
				l5.253-28.156c0.434-2.328-0.19-4.73-1.703-6.552s-3.759-2.875-6.128-2.875h-12.838l34.558-40.692h7.385l-3.174,17.013
				c-0.434,2.328,0.19,4.73,1.703,6.552c1.514,1.822,3.759,2.875,6.128,2.875H363.912z M395.468,330.571H135.45
				c-63.32,0-114.835-51.515-114.835-114.836c0-30.497,11.828-59.216,33.306-80.865c21.465-21.636,50.062-33.696,80.525-33.957
				c3.43-0.029,6.456-2.251,7.512-5.514c15.371-47.532,59.287-79.466,109.276-79.466c40.999,0,79.177,22.107,99.634,57.695
				c1.914,3.329,5.931,4.819,9.552,3.544c6.654-2.342,13.611-3.53,20.678-3.53c34.345,0,62.286,27.942,62.286,62.286
				c0,3.156-0.239,6.332-0.712,9.441c-0.476,3.139,0.956,6.261,3.646,7.946c28.219,17.682,45.066,48.089,45.066,81.337
				C491.386,287.542,448.358,330.571,395.468,330.571z"/>
			<path d="M175.503,168.658l-21.775-12.417c-3.822-2.179-8.688-0.847-10.866,2.974c-2.18,3.822-0.848,8.688,2.974,10.866
				l6.724,3.833c-0.114,0.536-0.176,1.092-0.176,1.662v8.796c0,4.4,3.567,7.966,7.966,7.966c4.4,0,7.966-3.567,7.966-7.966v-1.534
				c1.045,0.467,2.145,0.705,3.234,0.705c2.768,0,5.459-1.445,6.928-4.021C180.657,175.702,179.325,170.836,175.503,168.658z"/>
			<path d="M297.418,207.35c-4.4,0-7.966,3.567-7.966,7.966c0,7.026-5.716,12.743-12.742,12.743
				c-7.026,0-12.743-5.717-12.743-12.743c0-4.4-3.567-7.966-7.966-7.966c-4.4,0-7.966,3.567-7.966,7.966
				c0,7.026-5.717,12.743-12.743,12.743c-7.026,0-12.742-5.717-12.742-12.743c0-4.4-3.567-7.966-7.966-7.966
				c-4.4,0-7.966,3.567-7.966,7.966c0,7.983,3.282,15.213,8.565,20.416v9.25c0,22.508,18.311,40.819,40.819,40.819
				c22.508,0,40.819-18.311,40.819-40.819v-9.249c5.282-5.204,8.565-12.433,8.565-20.416
				C305.385,210.917,301.818,207.35,297.418,207.35z M280.889,244.982h-0.002c0,13.722-11.164,24.886-24.886,24.886
				c-13.722,0-24.886-11.164-24.886-24.886v-1.298c1.364,0.2,2.758,0.308,4.178,0.308c8.133,0,15.486-3.403,20.709-8.86
				c5.224,5.458,12.576,8.86,20.709,8.86c1.419,0,2.813-0.107,4.178-0.308V244.982z"/>
			<path d="M358.273,156.241l-21.775,12.417c-3.822,2.18-5.154,7.044-2.974,10.866c1.469,2.577,4.158,4.021,6.928,4.021
				c1.09,0,2.189-0.238,3.234-0.705v1.534c0,4.4,3.567,7.966,7.966,7.966c4.4,0,7.966-3.567,7.966-7.966v-8.796
				c0-0.57-0.063-1.126-0.176-1.662l6.724-3.833c3.822-2.18,5.154-7.044,2.974-10.866
				C366.959,155.393,362.095,154.061,358.273,156.241z"/>
		</g>
	</g>
</g>
</svg>